<svg width="401" height="177" viewBox="0 0 401 177" fill="none" xmlns="http://www.w3.org/2000/svg">
<path d="M36.7355 92.6037C29.1852 92.6037 23.0277 92.4573 18.2629 92.1646C13.4982 91.9451 9.83299 91.6159 7.26736 91.1769C4.70172 90.7379 2.94243 90.2257 1.98948 89.6404C1.03653 89.1282 0.560059 88.616 0.560059 88.1038L6.05784 76.58C6.86419 76.7995 8.66013 77.2019 11.4457 77.7872C14.2312 78.4457 18.2996 78.775 23.6508 78.775H40.2541C42.16 78.775 43.5161 78.4457 44.3224 77.7872C45.2021 77.1287 45.6053 75.9946 45.532 74.3849V69.8851C43.2595 70.5436 40.0708 71.0924 35.9658 71.5314C31.9341 71.8972 27.206 72.0802 21.7815 72.0802H18.5928C13.7547 72.0802 10.1262 71.4216 7.70718 70.1046C5.36146 68.7144 3.78543 66.8121 2.97908 64.3976C2.24605 61.983 1.87953 59.0929 1.87953 55.7272V40.362C1.87953 38.606 2.06279 36.7768 2.42931 34.8744C2.86913 32.9721 3.63882 31.2161 4.73838 29.6064C5.91124 27.9967 7.59723 26.6797 9.79634 25.6553C12.0688 24.631 15.0009 24.1188 18.5928 24.1188H21.8915C27.0227 24.1188 31.2011 24.192 34.4264 24.3383C37.6518 24.4846 40.2174 24.6676 42.1233 24.8871C44.1025 25.1066 45.7519 25.3261 47.0713 25.5456L49.9302 24.1188H65.5439V76.3605C65.5439 81.1895 64.0045 85.104 60.9258 88.1038C57.847 91.1037 52.7157 92.6037 45.532 92.6037H36.7355ZM27.4992 58.2515H42.1233C43.8093 58.2515 44.7989 58.1051 45.0921 57.8125C45.3853 57.5198 45.532 56.5686 45.532 54.9589V38.7157C43.9193 38.5694 42.3432 38.4597 40.8039 38.3865C39.3378 38.2402 37.6518 38.1304 35.7459 38.0572C33.9133 37.9841 31.5676 37.9475 28.7087 37.9475H27.4992C23.9806 37.9475 22.2213 39.4108 22.2213 42.3375V53.8614C22.148 56.7881 23.9073 58.2515 27.4992 58.2515Z" fill="black"/>
<path d="M95.6065 73.2874C90.7684 73.2874 87.0299 72.5923 84.391 71.2021C81.8254 69.812 80.0661 67.9096 79.1131 65.4951C78.1602 63.0074 77.6837 60.1538 77.6837 56.9345V40.362C77.6837 37.4353 78.1602 34.7647 79.1131 32.3502C80.1394 29.8625 81.9353 27.8869 84.5009 26.4236C87.0666 24.8871 90.7684 24.1188 95.6065 24.1188H118.367C124.085 24.1188 128.447 24.8139 131.452 26.2041C134.531 27.5211 136.62 29.4235 137.72 31.9112C138.892 34.3257 139.479 37.1426 139.479 40.362V54.4102H120.237C113.639 54.4102 108.618 54.2638 105.173 53.9712C101.801 53.6785 99.4183 53.4956 98.0255 53.4224V55.0687C97.9522 57.9954 99.7115 59.4587 103.303 59.4587H106.712C112.576 59.4587 118.001 59.349 122.985 59.1295C127.97 58.8368 131.672 58.5807 134.091 58.3612L140.688 68.7876C140.688 69.5193 140.065 70.2144 138.819 70.8729C137.573 71.5314 135.374 72.1167 132.222 72.6289C129.143 73.0679 124.745 73.2874 119.027 73.2874H95.6065ZM98.0255 43.8741H119.137V42.3375C119.137 40.8742 118.99 39.8498 118.697 39.2645C118.477 38.6792 117.708 38.3133 116.388 38.167C115.069 38.0206 112.833 37.9475 109.681 37.9475H103.303C99.7848 37.9475 98.0255 39.4108 98.0255 42.3375V43.8741Z" fill="black"/>
<path d="M151.693 73.2874V24.1188H167.637L172.035 26.3138C175.114 25.7285 178.816 25.2163 183.141 24.7773C187.539 24.3383 191.644 24.1188 195.456 24.1188H200.954C204.619 24.1188 207.441 24.631 209.42 25.6553C211.399 26.6797 212.792 27.9601 213.598 29.4966C214.478 31.0331 214.991 32.6062 215.138 34.2159C215.358 35.7525 215.468 37.0695 215.468 38.167V73.2874H195.346V42.3375C195.346 39.4108 193.586 37.9475 190.068 37.9475H175.334C173.941 37.9475 173.025 38.0938 172.585 38.3865C172.218 38.606 172.035 39.2645 172.035 40.362V73.2874H151.693Z" fill="black"/>
<path d="M239.252 19.3995C231.849 19.3995 228.147 16.2533 228.147 9.96089C228.147 6.44885 229.063 4.03432 230.896 2.7173C232.802 1.32711 235.587 0.632019 239.252 0.632019C243.138 0.632019 245.96 1.32711 247.719 2.7173C249.552 4.03432 250.468 6.44885 250.468 9.96089C250.468 16.2533 246.729 19.3995 239.252 19.3995ZM229.137 73.2874V24.1188H249.148V73.2874H229.137Z" fill="black"/>
<path d="M279.853 73.2874C275.015 73.2874 271.386 72.5923 268.967 71.2021C266.621 69.7388 265.045 67.7633 264.239 65.2756C263.506 62.7879 263.139 60.0441 263.139 57.0442V24.1188H283.371V55.0687C283.371 57.9954 285.131 59.4587 288.649 59.4587H301.184C302.797 59.4587 303.75 59.3124 304.043 59.0197C304.336 58.7271 304.483 57.7759 304.483 56.1662V24.1188H324.825V73.2874H308.881L304.703 71.0924C301.771 71.6777 298.399 72.1899 294.587 72.6289C290.775 73.0679 286.927 73.2874 283.041 73.2874H279.853Z" fill="black"/>
<path d="M350.42 73.2874C345.509 73.2874 342.027 73.0313 339.974 72.5192C337.922 72.007 336.896 71.4948 336.896 70.9826L341.294 59.4587C342.174 59.6782 344.776 59.9343 349.101 60.227C353.499 60.4465 359.876 60.5563 368.233 60.5563H376.04C377.873 60.5563 379.009 60.3733 379.449 60.0075C379.962 59.5685 380.218 58.8368 380.218 57.8125C380.218 56.5686 379.925 55.8004 379.339 55.5077C378.825 55.1419 377.726 54.9589 376.04 54.9589H353.719C348.368 54.9589 344.226 53.9712 341.294 51.9957C338.362 49.947 336.896 46.3252 336.896 41.1303V38.9352C336.896 36.228 337.262 33.7769 337.995 31.5819C338.728 29.3137 340.304 27.5211 342.723 26.2041C345.142 24.8139 348.808 24.1188 353.719 24.1188H386.266C390.664 24.1188 393.779 24.3749 395.612 24.8871C397.445 25.3992 398.361 25.9114 398.361 26.4236L397.261 38.0572C396.089 37.8377 393.12 37.6182 388.355 37.3987C383.664 37.1061 377.176 36.9597 368.893 36.9597H361.086C359.253 36.9597 358.081 37.1792 357.567 37.6182C357.128 37.9841 356.908 38.6426 356.908 39.5938C356.908 40.5449 357.128 41.24 357.567 41.679C358.081 42.0449 359.253 42.2278 361.086 42.2278H383.847C389.564 42.2278 393.779 43.4716 396.492 45.9593C399.204 48.447 400.56 51.9225 400.56 56.3857V58.471C400.56 61.105 400.23 63.5561 399.57 65.8243C398.911 68.0193 397.408 69.812 395.062 71.2021C392.717 72.5923 388.978 73.2874 383.847 73.2874H350.42Z" fill="black"/>
<path d="M36.7355 176.632C29.1852 176.632 23.0277 176.486 18.2629 176.193C13.4982 175.974 9.83299 175.644 7.26736 175.205C4.70172 174.766 2.94243 174.254 1.98948 173.669C1.03653 173.157 0.560059 172.644 0.560059 172.132L6.05784 160.608C6.86419 160.828 8.66013 161.23 11.4457 161.816C14.2312 162.474 18.2996 162.803 23.6508 162.803H40.2541C42.16 162.803 43.5161 162.474 44.3224 161.816C45.2021 161.157 45.6053 160.023 45.532 158.413V153.913C43.2595 154.572 40.0708 155.121 35.9658 155.56C31.9341 155.926 27.206 156.109 21.7815 156.109H18.5928C13.7547 156.109 10.1262 155.45 7.70718 154.133C5.36146 152.743 3.78543 150.84 2.97908 148.426C2.24605 146.011 1.87953 143.121 1.87953 139.756V124.39C1.87953 122.634 2.06279 120.805 2.42931 118.903C2.86913 117 3.63882 115.244 4.73838 113.635C5.91124 112.025 7.59723 110.708 9.79634 109.684C12.0688 108.659 15.0009 108.147 18.5928 108.147H21.8915C27.0227 108.147 31.2011 108.22 34.4264 108.367C37.6518 108.513 40.2174 108.696 42.1233 108.915C44.1025 109.135 45.7519 109.354 47.0713 109.574L49.9302 108.147H65.5439V160.389C65.5439 165.218 64.0045 169.132 60.9258 172.132C57.847 175.132 52.7157 176.632 45.532 176.632H36.7355ZM27.4992 142.28H42.1233C43.8093 142.28 44.7989 142.134 45.0921 141.841C45.3853 141.548 45.532 140.597 45.532 138.987V122.744C43.9193 122.598 42.3432 122.488 40.8039 122.415C39.3378 122.269 37.6518 122.159 35.7459 122.086C33.9133 122.012 31.5676 121.976 28.7087 121.976H27.4992C23.9806 121.976 22.2213 123.439 22.2213 126.366V137.89C22.148 140.816 23.9073 142.28 27.4992 142.28Z" fill="black"/>
<path d="M95.6065 157.316C90.7684 157.316 87.0299 156.621 84.391 155.231C81.8254 153.84 80.0661 151.938 79.1131 149.523C78.1602 147.036 77.6837 144.182 77.6837 140.963V124.39C77.6837 121.464 78.1602 118.793 79.1131 116.379C80.1394 113.891 81.9353 111.915 84.5009 110.452C87.0666 108.915 90.7684 108.147 95.6065 108.147H118.367C124.085 108.147 128.447 108.842 131.452 110.232C134.531 111.549 136.62 113.452 137.72 115.94C138.892 118.354 139.479 121.171 139.479 124.39V138.439H120.237C113.639 138.439 108.618 138.292 105.173 138C101.801 137.707 99.4183 137.524 98.0255 137.451V139.097C97.9522 142.024 99.7115 143.487 103.303 143.487H106.712C112.576 143.487 118.001 143.377 122.985 143.158C127.97 142.865 131.672 142.609 134.091 142.39L140.688 152.816C140.688 153.548 140.065 154.243 138.819 154.901C137.573 155.56 135.374 156.145 132.222 156.657C129.143 157.096 124.745 157.316 119.027 157.316H95.6065ZM98.0255 127.902H119.137V126.366C119.137 124.903 118.99 123.878 118.697 123.293C118.477 122.708 117.708 122.342 116.388 122.195C115.069 122.049 112.833 121.976 109.681 121.976H103.303C99.7848 121.976 98.0255 123.439 98.0255 126.366V127.902Z" fill="black"/>
<path d="M151.693 157.316V108.147H167.637L172.035 110.342C175.114 109.757 178.816 109.245 183.141 108.806C187.539 108.367 191.644 108.147 195.456 108.147H200.954C204.619 108.147 207.441 108.659 209.42 109.684C211.399 110.708 212.792 111.988 213.598 113.525C214.478 115.062 214.991 116.635 215.138 118.244C215.358 119.781 215.468 121.098 215.468 122.195V157.316H195.346V126.366C195.346 123.439 193.586 121.976 190.068 121.976H175.334C173.941 121.976 173.025 122.122 172.585 122.415C172.218 122.634 172.035 123.293 172.035 124.39V157.316H151.693Z" fill="black"/>
<path d="M239.252 103.428C231.849 103.428 228.147 100.282 228.147 93.9893C228.147 90.4772 229.063 88.0627 230.896 86.7457C232.802 85.3555 235.587 84.6604 239.252 84.6604C243.138 84.6604 245.96 85.3555 247.719 86.7457C249.552 88.0627 250.468 90.4772 250.468 93.9893C250.468 100.282 246.729 103.428 239.252 103.428ZM229.137 157.316V108.147H249.148V157.316H229.137Z" fill="black"/>
<path d="M279.853 157.316C275.015 157.316 271.386 156.621 268.967 155.231C266.621 153.767 265.045 151.792 264.239 149.304C263.506 146.816 263.139 144.072 263.139 141.073V108.147H283.371V139.097C283.371 142.024 285.131 143.487 288.649 143.487H301.184C302.797 143.487 303.75 143.341 304.043 143.048C304.336 142.755 304.483 141.804 304.483 140.195V108.147H324.825V157.316H308.881L304.703 155.121C301.771 155.706 298.399 156.218 294.587 156.657C290.775 157.096 286.927 157.316 283.041 157.316H279.853Z" fill="black"/>
<path d="M350.42 157.316C345.509 157.316 342.027 157.06 339.974 156.548C337.922 156.035 336.896 155.523 336.896 155.011L341.294 143.487C342.174 143.707 344.776 143.963 349.101 144.255C353.499 144.475 359.876 144.585 368.233 144.585H376.04C377.873 144.585 379.009 144.402 379.449 144.036C379.962 143.597 380.218 142.865 380.218 141.841C380.218 140.597 379.925 139.829 379.339 139.536C378.825 139.17 377.726 138.987 376.04 138.987H353.719C348.368 138.987 344.226 138 341.294 136.024C338.362 133.975 336.896 130.354 336.896 125.159V122.964C336.896 120.256 337.262 117.805 337.995 115.61C338.728 113.342 340.304 111.549 342.723 110.232C345.142 108.842 348.808 108.147 353.719 108.147H386.266C390.664 108.147 393.779 108.403 395.612 108.915C397.445 109.428 398.361 109.94 398.361 110.452L397.261 122.086C396.089 121.866 393.12 121.647 388.355 121.427C383.664 121.134 377.176 120.988 368.893 120.988H361.086C359.253 120.988 358.081 121.208 357.567 121.647C357.128 122.012 356.908 122.671 356.908 123.622C356.908 124.573 357.128 125.268 357.567 125.707C358.081 126.073 359.253 126.256 361.086 126.256H383.847C389.564 126.256 393.779 127.5 396.492 129.988C399.204 132.475 400.56 135.951 400.56 140.414V142.499C400.56 145.133 400.23 147.585 399.57 149.853C398.911 152.048 397.408 153.84 395.062 155.231C392.717 156.621 388.978 157.316 383.847 157.316H350.42Z" fill="black"/>
</svg>
