<?xml version="1.0" standalone="no"?>
<!DOCTYPE svg PUBLIC "-//W3C//DTD SVG 20010904//EN"
 "http://www.w3.org/TR/2001/REC-SVG-20010904/DTD/svg10.dtd">
<svg version="1.0" xmlns="http://www.w3.org/2000/svg"
 width="120.000000pt" height="120.000000pt" viewBox="0 0 120.000000 120.000000"
 preserveAspectRatio="xMidYMid meet">
<metadata>
Created by potrace 1.11, written by Peter Selinger 2001-2013
</metadata>
<g transform="translate(0.000000,120.000000) scale(0.100000,-0.100000)"
fill="#000000" stroke="none">
<path d="M584 1010 c-46 -18 -64 -57 -64 -140 l0 -77 -142 4 c-132 4 -146 3
-176 -17 -48 -30 -62 -72 -62 -190 0 -111 14 -160 52 -182 25 -14 212 -17 281
-4 l38 7 -3 -33 -3 -33 -167 0 -166 0 -22 -44 c-13 -26 -18 -47 -12 -53 16
-16 133 -28 282 -28 120 0 152 4 186 19 52 24 74 68 74 150 l0 61 133 0 c153
0 191 12 219 70 16 30 18 66 18 266 l0 232 -222 0 c-123 0 -233 -3 -244 -8z
m284 -109 c9 -5 12 -30 10 -87 l-3 -79 -81 -3 c-104 -4 -114 5 -114 92 0 35 5
67 12 74 14 14 155 16 176 3z m-358 -306 l0 -85 -88 0 c-55 0 -92 4 -100 12
-7 7 -12 39 -12 73 0 34 5 66 12 73 8 8 45 12 100 12 l88 0 0 -85z m366 -21
c-4 -11 -28 -14 -101 -14 l-95 0 0 30 c0 29 2 30 48 31 26 0 70 4 97 7 47 7
50 6 53 -16 2 -13 1 -30 -2 -38z"/>
</g>
</svg>
